<svg id="Calque_1" data-name="Calque 1" xmlns="http://www.w3.org/2000/svg" viewBox="0 0 1264.66 1964.9"><path d="M458.14,1658.87c12.25,65,61.94,114.81,124,125.44,63.72,10.92,118.82-15,153.74-70.78,4.22-6.74,15.06-9.34,22.82-13.85,1.12,8.92,5.35,18.84,2.86,26.61-21.67,67.82-91.2,115.6-170.75,118.74-116.57,4.59-210-78.43-222-194.7-7.31-70.92,4.85-135.54,51.41-191.23,61.86-74,173.41-96.6,257.63-52.06,35.6,18.82,61.29,46.72,71.84,86.68,11.7,44.34-.79,68.81-43.63,83.11-71.88,24-144,47.32-216,71C479.25,1651.35,468.62,1655.23,458.14,1658.87Zm-8.72-30c71.66-26,140.2-50.33,208.21-76,21.13-8,20.62-27.39,16.91-45.83-8.77-43.58-49.63-84.78-89.93-91.41-43-7.08-84.71,13.42-110,55.25C445.7,1518.54,442.78,1570.64,449.42,1628.88Z" transform="translate(-366.76 -16)"/><path d="M1453.63,1384.9c33.13.79,75.87,8,114.19,31.82,23,14.28,42.28,32.41,49.87,59.6,6.61,23.67.31,38.68-18.28,46.65-17,7.27-31.07.86-43.35-20.51-6.06-10.55-11.3-21.58-16.55-32.56-28.73-60.07-92.83-66.22-139.5-46.77-31.09,13-48.88,36.62-49.13,71.46-.24,34.26,19.51,55.73,49.09,66,39.75,13.81,81.18,22.71,121.36,35.41,20.29,6.41,41,14.07,58.79,25.41,64.68,41.17,68.81,131.82,9,179.67-43.19,34.53-94.77,43.39-147.83,42.86-50.76-.51-100.65-9.36-141.71-42-15.08-12-27.69-29-36.68-46.24-10-19.09-2-39.18,13.29-46.64,18.44-9,38-3.21,49.87,16,7.88,12.77,13.81,26.73,21.31,39.76,33.44,58,131.77,71.37,180.34,24.68,35-33.64,29.52-93.31-14.8-114.72-34.3-16.58-73-24-109.73-35.63-21.78-6.91-44.1-12.65-65.07-21.53-41.8-17.72-65.7-49.53-68.78-95.66s17.42-80.11,54.68-105.1C1355.61,1395.57,1396.5,1384.87,1453.63,1384.9Z" transform="translate(-366.76 -16)"/><path d="M937.69,1468.9c0,96.77.41,193.55-.34,290.32-.15,19.91,5.61,34,22.32,45.37,6.22,4.23,8.25,14.6,12.19,22.18-7.42,3.16-14.76,8.83-22.26,9q-51.57,1.45-103.2,0c-6.8-.18-18.5-5-19.06-9-1-6.72,3.12-17.24,8.65-21.22,16.51-11.9,21-27,20.94-46.38q-.64-246.24,0-492.48c.07-22.31-5-40.57-22.91-55-14.21-11.44-11.12-21.87,4.3-29.56,22.42-11.19,44.74-22.62,67.49-33.11s31.74-4.47,31.78,20.85Q937.84,1319.44,937.69,1468.9Z" transform="translate(-366.76 -16)"/><path d="M1158.94,1587c0,56.67.43,113.34-.2,170-.22,20.21,4.63,35.93,23,47.32,6.39,4,8.81,14.34,13,21.78-7.4,3.39-14.71,9.48-22.2,9.7-35.12,1-70.31,1-105.43,0-6.76-.18-18.39-5.32-18.92-9.35-.89-6.69,3.43-17,9-21.07,17-12.32,22.39-27.84,22.23-48.15q-1-124.82,0-249.64c.13-21.46-5.87-38.76-22.09-53.47-16.62-15.07-15.34-21.18,4.35-31.34,22.27-11.47,44.58-22.94,67.35-33.34,21.11-9.64,29.57-4.27,29.72,18.89C1159.19,1467.86,1158.92,1527.4,1158.94,1587Z" transform="translate(-366.76 -16)"/><path d="M587.43,1896.19h52.4c17.34,0,28.07,8.11,28.07,21.34,0,11.47-8.48,18.33-24.08,19.83a89,89,0,0,1,5.37,7.86l22,34.19H655.3l-25.07-41.05H602.66a5.92,5.92,0,0,1-2.87-.49,8.28,8.28,0,0,1,.37,3v38.55H587.43Zm15.23,10.74a5.81,5.81,0,0,1-2.87-.5,8,8,0,0,1,.37,3v15.22a7.67,7.67,0,0,1-.37,2.87,5.81,5.81,0,0,1,2.87-.5h38.42c9.23,0,14.6-3.74,14.6-10.23s-5.37-9.85-15.35-9.85Z" transform="translate(-366.76 -16)"/><path d="M721,1896.19h70.23v11.48h-55a7.65,7.65,0,0,1-2.87-.37,7.67,7.67,0,0,1,.37,2.87V1924a8.33,8.33,0,0,1-.37,3,5.81,5.81,0,0,1,2.87-.5H782V1938H736.23a7.65,7.65,0,0,1-2.87-.37,7.62,7.62,0,0,1,.37,2.86v25.2a7.67,7.67,0,0,1-.37,2.87,5.81,5.81,0,0,1,2.87-.5h57.88v11.36H721Z" transform="translate(-366.76 -16)"/><path d="M916.21,1921.65c-4.74-10.74-14.09-16.23-27.32-16.23-9.61,0-17.09,2.88-23.58,9.12a30.87,30.87,0,0,0-9.85,23.45c0,19,13.6,32.19,32.93,32.19a35.15,35.15,0,0,0,21.34-6.74c3.24-2.5,5.36-4.87,9.1-10.11l10.11,6.61c-5,6.62-8.36,10-13.35,13.35a51.07,51.07,0,0,1-27,7.61c-14.34,0-23.45-3.11-31.81-10.35-8.61-7.73-13.6-19.47-13.6-31.81,0-26.21,18-44,44.41-44a55.67,55.67,0,0,1,27.57,7.24c6,3.49,9.86,7.61,13.35,14.1Z" transform="translate(-366.76 -16)"/><path d="M1060.14,1907.55c8,7.73,12.35,18.46,12.35,30.32,0,25.07-19.33,43-46.66,43-28.82,0-49.28-18-49.28-43s20.59-43.18,49-43.18C1039.93,1894.69,1051.29,1898.94,1060.14,1907.55Zm-70.36,30.19c0,19.46,14.22,32.56,35.68,32.56,19.59,0,33.81-13.6,33.81-32.56a32.69,32.69,0,0,0-8.85-22.58c-6.37-6.74-14.6-10-25.21-10C1004,1905.17,989.78,1918.27,989.78,1937.74Z" transform="translate(-366.76 -16)"/><path d="M1125.59,1896.19H1178c17.34,0,28.07,8.11,28.07,21.34,0,11.47-8.48,18.33-24.08,19.83a89,89,0,0,1,5.37,7.86l22,34.19h-15.85l-25.07-41.05h-27.58a5.9,5.9,0,0,1-2.86-.49,8.28,8.28,0,0,1,.37,3v38.55h-12.73Zm15.22,10.74a5.79,5.79,0,0,1-2.86-.5,8,8,0,0,1,.37,3v15.22a7.67,7.67,0,0,1-.37,2.87,5.79,5.79,0,0,1,2.86-.5h38.43c9.23,0,14.6-3.74,14.6-10.23s-5.37-9.85-15.35-9.85Z" transform="translate(-366.76 -16)"/><path d="M1259.17,1896.19h33.68c17.09,0,27.44,3,35.8,10.24a41.88,41.88,0,0,1,13.73,31.06c0,14.47-6.24,27.45-16.72,34.56-7.11,4.61-16.84,7.36-26.82,7.36h-39.67Zm15.22,11.48a7.7,7.7,0,0,1-2.88-.37,7.49,7.49,0,0,1,.38,2.87v55.26a7.19,7.19,0,0,1-.38,2.87,7.7,7.7,0,0,1,2.88-.37h25.2c9,0,15.47-2.37,21.08-7.49,6-5.48,9.24-13.72,9.24-23,0-8.36-3.25-17-8.11-21.58-5.74-5.62-14.35-8.24-26.83-8.24Z" transform="translate(-366.76 -16)"/><path d="M1400.22,1952c7.61,12.85,18.35,18.34,35.19,18.34s27.44-6.24,27.44-16.09c0-8-6.11-12.73-17.34-13.6l-25.82-1.75c-9.23-.74-14.23-2.25-19.22-5.74a17.56,17.56,0,0,1-7-13.72c0-14,15.85-24.71,36.56-24.71,18.46,0,32.94,6,42,17.22l-10.47,5.37c-7.86-8.11-16.85-11.73-28.95-11.73-15.85,0-26.32,5.24-26.32,12.85,0,4.87,5.36,8,14.72,8.61l22.46,1.24c9.1.5,15.72,2.13,21.08,5.37a23.49,23.49,0,0,1,11.23,20.22,23.75,23.75,0,0,1-12.85,20.82c-7,4-17.22,6.24-27.07,6.24-22.34,0-35.94-6.61-47.16-22.58Z" transform="translate(-366.76 -16)"/><path d="M1350,162.82c-42.23-42.23-117.11-47.79-152.91,0-43.1,57.53-125.26,218.56-163,294.19-6.54,13.1,7.29,27,20.43,20.54,75.93-37.37,237.76-118.79,295.5-161.82C1397.86,280.05,1392.2,205.05,1350,162.82Z" transform="translate(-366.76 -16)"/><path d="M1496.82,517.29c0-59.71-49-116.6-108.13-108.12-71.15,10.2-243.11,66-323.29,92.75-13.89,4.64-14,24.25-.08,29,80.12,27.27,252.12,84.12,323.37,94.53C1447.78,634.05,1496.82,577,1496.82,517.29Z" transform="translate(-366.76 -16)"/><path d="M1350,871.77c42.22-42.22,47.79-117.1,0-152.91-57.53-43.09-218.56-125.26-294.19-163-13.1-6.54-27,7.28-20.54,20.42,37.36,75.94,118.79,237.76,161.82,295.5C1232.77,919.66,1307.77,914,1350,871.77Z" transform="translate(-366.76 -16)"/><path d="M995.52,1018.61c59.72,0,116.61-49,108.13-108.12-10.21-71.15-66-243.12-92.75-323.29-4.64-13.89-24.25-14-29-.09-27.28,80.12-84.13,252.12-94.53,323.38C878.77,969.58,935.81,1018.61,995.52,1018.61Z" transform="translate(-366.76 -16)"/><path d="M641,871.79c42.23,42.23,117.11,47.8,152.91,0,43.1-57.53,125.26-218.56,163-294.18,6.54-13.11-7.29-27-20.43-20.55C860.61,594.43,698.78,675.85,641,718.88,593.16,754.56,598.82,829.57,641,871.79Z" transform="translate(-366.76 -16)"/><path d="M494.2,517.32c0,59.72,49,116.6,108.13,108.12,71.15-10.2,243.11-66,323.29-92.75,13.89-4.64,14-24.25.08-29-80.12-27.27-252.12-84.12-323.37-94.53C543.24,400.57,494.2,457.6,494.2,517.32Z" transform="translate(-366.76 -16)"/><path d="M641,162.84C598.8,205.06,593.23,280,641,315.75c57.53,43.1,218.56,125.26,294.19,163,13.1,6.55,27-7.28,20.54-20.42C918.39,382.4,837,220.58,793.94,162.84,758.25,115,683.25,120.61,641,162.84Z" transform="translate(-366.76 -16)"/><path d="M995.5,16c-59.72,0-116.61,49-108.13,108.12,10.21,71.16,66,243.12,92.75,323.29,4.64,13.89,24.26,13.95,29,.09,27.28-80.12,84.13-252.12,94.53-323.38C1112.25,65,1055.21,16,995.5,16Z" transform="translate(-366.76 -16)"/></svg>